<svg id="Layer_1" data-name="Layer 1" xmlns="http://www.w3.org/2000/svg" xmlns:xlink="http://www.w3.org/1999/xlink" width="2708.85" height="603.71" viewBox="0 0 2708.85 603.71"><defs><style>.cls-1,.cls-2,.cls-3{stroke:#000;stroke-miterlimit:10;stroke-width:3px;}.cls-1{fill:url(#linear-gradient);}.cls-2{fill:url(#linear-gradient-2);}.cls-3{fill:url(#linear-gradient-3);}.cls-4{fill:#f8a406;}</style><linearGradient id="linear-gradient" x1="517.83" y1="-12.25" x2="388.65" y2="278.88" gradientUnits="userSpaceOnUse"><stop offset="0" stop-color="#f8a406" stop-opacity="0.7"/><stop offset="0.29" stop-color="#835b00"/><stop offset="0.53" stop-color="#f8a406"/><stop offset="0.85" stop-color="#8b5c00"/><stop offset="1" stop-color="#da9005" stop-opacity="0.9"/></linearGradient><linearGradient id="linear-gradient-2" x1="424.7" y1="147.74" x2="333.64" y2="352.94" xlink:href="#linear-gradient"/><linearGradient id="linear-gradient-3" x1="342.01" y1="290.18" x2="274.09" y2="443.25" xlink:href="#linear-gradient"/></defs><polygon class="cls-1" points="4.85 148.69 166.26 211.67 476.49 137.66 575.7 375.45 755.23 447.89 566.8 1.78 4.85 148.69"/><polygon class="cls-2" points="54.45 257.34 205.63 320.33 382.01 273.09 449.72 422.69 597.75 482.53 463.89 159.71 54.45 257.34"/><polygon class="cls-3" points="70.2 373.87 208.78 427.42 296.97 405.37 326.89 473.08 471.77 526.63 369.41 298.28 70.2 373.87"/><path d="M992.4,1913.85a84.18,84.18,0,0,1-23.41-6.44,87.76,87.76,0,0,1-21-13.28q-18.65,13.41-31.53,19.19t-23.75,5.76q-13.15,0-21.13-7.17t-8-18.85q0-9.27,5.3-15.37a16.64,16.64,0,0,1,13.08-6.1,11.49,11.49,0,0,1,12.07,12.07,9.56,9.56,0,0,1-2.81,7.25,10.63,10.63,0,0,1-7.65,2.68,24,24,0,0,1-5.7-.87,24.77,24.77,0,0,0-4.37-.87,2.9,2.9,0,0,0-2.34.87,4.17,4.17,0,0,0-.74,2.75,14.22,14.22,0,0,0,6.17,11.87Q882.78,1912,893,1912t22.54-5.83Q928,1900.3,943,1888.63a105.36,105.36,0,0,1-17.78-29.05,83.68,83.68,0,0,1-5.84-30.93q0-24.54,12.41-40.25t31.47-15.7q18.78,0,32.6,14.69t18.78,40.19l45.35-41.46q42.13-38.5,65.34-52.93t41.06-14.42a7.55,7.55,0,0,1,3.89.94c1.07.62,1.61,1.34,1.61,2.14q0,.68-15.16,17a378.68,378.68,0,0,0-28.58,34.68q-3.89,5.23-11.94,16.23-55.54,76.21-99,118.07a87.76,87.76,0,0,0,25.23-4.76,86,86,0,0,0,22.54-12.28q5.23-3.75,11.27-9t7.11-5.23a2.19,2.19,0,0,1,1.68.67,2.53,2.53,0,0,1,.6,1.75c0,1.07-1.07,2.64-3.22,4.69s-6.4,5.64-12.75,10.74a90.09,90.09,0,0,1-27.17,15q-14.28,4.83-32.67,5l-3.08,3.35a7.49,7.49,0,0,1-3,2,12.77,12.77,0,0,1-4.36.67h-6.17a5.76,5.76,0,0,1-2.15-.34,1.09,1.09,0,0,1-.81-1,2.74,2.74,0,0,1,.2-.8c.14-.36.34-.8.61-1.34ZM948,1884.74q13-9.66,24.89-19.59t22.61-20l13.41-12.61q-3-21.35-13.95-33.35a35.5,35.5,0,0,0-27.24-12,37.65,37.65,0,0,0-29.25,13q-11.67,13-11.67,32.87a68.44,68.44,0,0,0,5.3,26.1A97.16,97.16,0,0,0,948,1884.74Zm48.84,23.61a164.24,164.24,0,0,0,9.86-29.58,130,130,0,0,0,3.29-28.65c0-2.41,0-4.23-.07-5.43s-.11-2.31-.2-3.29l-8.45,7.92q-11,10.18-23.08,20.46t-25.09,20.46a64.71,64.71,0,0,0,19.12,12.14A88,88,0,0,0,996.83,1908.35Zm19-72.32q.27,5.64.34,8.26c0,1.74.06,3.33.06,4.76a151,151,0,0,1-1.81,23.48,137.15,137.15,0,0,1-5.57,22.67q29.11-32.87,60.85-73.12t37-46.16q11.28-12.47,23.48-24.42t25.5-23.34q-13.43.79-37.44,17.17t-55.41,46.29Z" transform="translate(-263.15 -1317.26)"/><path d="M1105.06,1894.67a26.27,26.27,0,0,0-1.81,5,17.6,17.6,0,0,0-.61,4.29,8.46,8.46,0,0,0,2.75,6.71,11.09,11.09,0,0,0,7.58,2.42q8.46,0,20.67-6.24a151.05,151.05,0,0,0,26.16-17.64c2.41-2.06,5.37-4.68,8.85-7.85s5.64-4.77,6.44-4.77a2.16,2.16,0,0,1,1.68.67,2.53,2.53,0,0,1,.6,1.75c0,1-1.2,2.7-3.62,5.16s-6.62,6.24-12.61,11.34a124,124,0,0,1-26.83,17.78q-13.43,6.38-23.48,6.37-9.66,0-15.43-5.9t-5.77-16.1q0-9.13,5.77-18.18t16.77-17.24a90.89,90.89,0,0,1,18.11-10.47,41.52,41.52,0,0,1,15.7-3.49c4.29,0,7.33.7,9.12,2.08s2.69,3.78,2.69,7.18q0,10.34-15.16,21.47T1105.06,1894.67Zm3.89-8.05q18.1-3.76,30.46-12.08t12.34-15.56a5.57,5.57,0,0,0-.94-3.63,4.13,4.13,0,0,0-3.22-1.07q-6.71,0-16.5,8.25T1109,1886.62Z" transform="translate(-263.15 -1317.26)"/><path d="M1258.37,1853.48a2.89,2.89,0,0,1,1.41-.81,6.19,6.19,0,0,1,2.08-.4,21,21,0,0,1,6.44.87c1.78.58,2.68,1.23,2.68,1.94,0,.36-.83,1.41-2.48,3.16a53.24,53.24,0,0,0-4.09,4.76,58.39,58.39,0,0,0-7.59,12.55,28,28,0,0,0-2.61,10.8,8.2,8.2,0,0,0,1.88,5.63,6.26,6.26,0,0,0,5,2.15,15.94,15.94,0,0,0,7.25-2,54.17,54.17,0,0,0,9.52-6.85q2.42-2,6-5.23c2.86-2.68,4.7-4,5.5-4a2.16,2.16,0,0,1,1.68.67,2.5,2.5,0,0,1,.6,1.74,6.22,6.22,0,0,1-1.54,3.09,53.55,53.55,0,0,1-6.24,5.77q-9.66,7.9-15.43,10.8a24.45,24.45,0,0,1-10.87,2.88q-7,0-10.8-4.23t-3.82-11.74a30.41,30.41,0,0,1,.73-6.17,70.05,70.05,0,0,1,2.09-7.51q-12.23,11.15-23,23a308.85,308.85,0,0,0-19.92,24.22c-2.33.36-4.47.62-6.44.8s-3.76.27-5.37.27a12,12,0,0,1-4-.54c-1-.35-1.48-.8-1.48-1.34q0-1.74,7.78-10.19,4.7-5.23,7.65-8.46,15-17.56,20.26-25.35t5.23-11.81a3.1,3.1,0,0,0-.33-1.68,1.17,1.17,0,0,0-1-.47q-3.49,0-9,3.09a121.89,121.89,0,0,0-14.56,10.06q-2.68,2.14-6.58,5.77-4.83,4.42-6.3,4.43a2.46,2.46,0,0,1-1.81-.74,2.42,2.42,0,0,1-.74-1.81c0-.9.91-2.3,2.75-4.23s5.12-4.9,9.86-8.92a121.51,121.51,0,0,1,19.92-14q9.6-5.24,14.43-5.24a7.62,7.62,0,0,1,5.9,2.35,9.1,9.1,0,0,1,2.15,6.37,25.68,25.68,0,0,1-1.07,6.78,56.84,56.84,0,0,1-3.36,8.65Z" transform="translate(-263.15 -1317.26)"/><path d="M1359.75,1884.2q-17.31,17-31.66,26t-24.42,8.92q-7,0-11.07-4t-4.09-10.73q0-9.39,7.58-19.93t21.53-20.59A98.32,98.32,0,0,1,1339,1852q10.93-4.29,19.26-4.29,6.71,0,10.8,3.55a11.79,11.79,0,0,1,4.09,9.33,20.37,20.37,0,0,1-2.35,8.72,53,53,0,0,1-7,10.46,10,10,0,0,0,4,4.56,12.07,12.07,0,0,0,6.17,1.48q5.1,0,11.81-4.63t8.32-4.63a1.41,1.41,0,0,1,1.21.54,2.75,2.75,0,0,1,.4,1.61q0,2.68-7.65,7.65t-14.09,5a17.26,17.26,0,0,1-7.71-1.68A19.85,19.85,0,0,1,1359.75,1884.2Zm-59.17,23.88a4.25,4.25,0,0,0,1.21,3.43,5.81,5.81,0,0,0,3.76,1q5.9,0,15.56-5.5a156.59,156.59,0,0,0,22.41-16.24,116.62,116.62,0,0,0,17.17-17.51q6.16-8.12,6.17-12.94a5.32,5.32,0,0,0-1.54-4,5.89,5.89,0,0,0-4.23-1.47q-4.56,0-12.48,4.36a99,99,0,0,0-16.63,11.87,196.61,196.61,0,0,0-22.88,22.34Q1300.58,1903.53,1300.58,1908.08Z" transform="translate(-263.15 -1317.26)"/><path class="cls-4" d="M1656.85,1749.22q-24.55,25.63-59.24,71t-48.51,60.65q-17.16,19.32-34.21,29.31t-32.47,10q-13.41,0-21.73-6.58a21,21,0,0,1-8.32-17.3A20.57,20.57,0,0,1,1459,1881a21.74,21.74,0,0,1,15.63-6.44q6.3,0,10.06,3.22a10.74,10.74,0,0,1,3.76,8.59c0,3.67-1.12,6.5-3.35,8.52s-5.37,3-9.4,3a18.75,18.75,0,0,1-8-2.15q-4.42-2.15-5.63-2.15a2.85,2.85,0,0,0-2.42,1.34,6,6,0,0,0-.94,3.49q0,6.32,6.85,10.87t16.9,4.56a48.93,48.93,0,0,0,18-3.69,90.84,90.84,0,0,0,19.52-11.07q21.73-16,77.15-88.55,9.93-12.88,15.16-19.72,25.37-32.88,44.21-53.14t23.68-20.26a1.4,1.4,0,0,1,1,.34,1.38,1.38,0,0,1,.33,1q0,2.28-6.91,16.57A167.79,167.79,0,0,0,1664,1763q-2.14,8.19-6.44,26-15,62.92-33.41,99l61.05-74.46q40.24-49.11,67.88-73.8t42.54-24.68a7.07,7.07,0,0,1,3.89.87,2.79,2.79,0,0,1,1.34,2.48q0,2.28-5.7,3.76a61.62,61.62,0,0,0-9.33,3.08q-16.63,7.65-37.5,27.17t-48.5,53.6l-84.39,103.32a75.9,75.9,0,0,1-8.12,8.92q-3,2.61-4.76,2.61a2,2,0,0,1-1.68-.74,3,3,0,0,1-.61-1.94q0-1.08,3.29-7.18t5.57-11.47q6.3-15.44,12.08-39.71c.71-3.05,1.25-5.28,1.61-6.71l.67-2.69Q1637.53,1792.83,1656.85,1749.22Z" transform="translate(-263.15 -1317.26)"/><path class="cls-4" d="M1767.89,1884.2q-17.31,17-31.66,26t-24.42,8.92q-7,0-11.07-4t-4.09-10.73q0-9.39,7.58-19.93t21.53-20.59a98.32,98.32,0,0,1,21.4-11.81q10.93-4.29,19.25-4.29,6.72,0,10.81,3.55a11.79,11.79,0,0,1,4.09,9.33,20.37,20.37,0,0,1-2.35,8.72,53,53,0,0,1-7,10.46,10.12,10.12,0,0,0,4,4.56,12.07,12.07,0,0,0,6.17,1.48q5.1,0,11.81-4.63t8.32-4.63a1.41,1.41,0,0,1,1.21.54,2.75,2.75,0,0,1,.4,1.61q0,2.68-7.65,7.65t-14.09,5a17.26,17.26,0,0,1-7.71-1.68A19.85,19.85,0,0,1,1767.89,1884.2Zm-59.17,23.88a4.25,4.25,0,0,0,1.21,3.43,5.78,5.78,0,0,0,3.75,1q5.91,0,15.57-5.5a156,156,0,0,0,22.4-16.24,116.25,116.25,0,0,0,17.18-17.51q6.17-8.12,6.17-12.94a5.32,5.32,0,0,0-1.54-4,5.89,5.89,0,0,0-4.23-1.47q-4.56,0-12.48,4.36a99,99,0,0,0-16.63,11.87,196.61,196.61,0,0,0-22.88,22.34Q1708.72,1903.53,1708.72,1908.08Z" transform="translate(-263.15 -1317.26)"/><path class="cls-4" d="M1816.82,1918.55a14.83,14.83,0,0,1-3.09.6c-1.25.14-3.35.2-6.31.2a29.3,29.3,0,0,1-6.1-.4c-1-.27-1.54-.76-1.54-1.47q0-2.42,11.8-13.29,7.92-7.38,12.89-12.34l3.22-2.95q27.09-26.3,27.1-30.19a3.07,3.07,0,0,0-.4-1.68,1.25,1.25,0,0,0-1.08-.6q-3.75,0-9.59,3.62t-16.44,12.88q-2.68,2.28-6.44,5.77-5,4.69-6.57,4.7a2.54,2.54,0,0,1-1.75-.61,2.13,2.13,0,0,1-.67-1.68q0-1.87,9.8-10.59,1.88-1.62,2.82-2.55,12.06-10.47,20.12-15.1t14-4.63a8,8,0,0,1,6.58,2.82c1.52,1.88,2.28,4.69,2.28,8.45,0,.63-.05,1.39-.14,2.28s-.22,2.2-.4,3.9q18.26-11.42,24.89-14.43t11.07-3a6.48,6.48,0,0,1,5.64,2.89c1.34,1.92,2,4.72,2,8.38,0,.72,0,1.48-.07,2.28s-.16,2.11-.33,3.9q16.37-10.34,23.81-13.89t11.74-3.56a10.36,10.36,0,0,1,7.45,2.62,9.45,9.45,0,0,1,2.75,7.18q0,8.18-16.91,24.69l-.4.4q-3,2.68-8,7.51-16.38,15.3-16.37,18.52a2.9,2.9,0,0,0,1.21,2.41,5.08,5.08,0,0,0,3.22.94q5.89,0,17.38-5.7a154.71,154.71,0,0,0,24.35-15.5q5.49-4,11.67-9.39t7.24-5.37a1.86,1.86,0,0,1,1.48.61,2.63,2.63,0,0,1,.54,1.81q0,2.41-14.9,14.49l-.8.67a173.48,173.48,0,0,1-28.31,18.52q-13.68,7-20.93,7a13.92,13.92,0,0,1-9.66-3.35,11.14,11.14,0,0,1-3.76-8.72q0-6.45,4.9-14.09a73.79,73.79,0,0,1,14-15.57q3-2.54,8-6.84,12.62-10.47,12.61-12.34a1.91,1.91,0,0,0-1-1.61,4.09,4.09,0,0,0-2.34-.67q-7.52,0-29,16.9t-49.44,45.22a17.67,17.67,0,0,1-3.22.6c-1.26.14-3.31.2-6.17.2a31.4,31.4,0,0,1-6.31-.4c-1.08-.27-1.61-.76-1.61-1.47q0-2.42,11.67-13.29,4.56-4.29,7.25-6.84,19.18-18.12,27.7-27t8.52-10.81a3,3,0,0,0-.93-2.14,2.82,2.82,0,0,0-2-.94q-7.38,0-29.52,17.24T1816.82,1918.55Z" transform="translate(-263.15 -1317.26)"/><path class="cls-4" d="M2013.73,1869a132.27,132.27,0,0,0-15.09,10.13c-5.06,3.89-8,5.83-8.79,5.83a1.8,1.8,0,0,1-1.34-.53,1.82,1.82,0,0,1-.54-1.34q0-2.14,5-5.91l.14-.13,8.32-6.31a260.21,260.21,0,0,1,24.82-17.37q9.66-5.7,14.22-5.7a47.12,47.12,0,0,1,9.73.8c2.46.54,3.69,1.25,3.69,2.15q0,.94-10.94,10.13t-20.32,18.44a207.53,207.53,0,0,0-17.92,19.33q-6,7.65-6,10.87a3.37,3.37,0,0,0,1.08,2.68,4.3,4.3,0,0,0,3,.94q5.64,0,16.7-5.64a154.92,154.92,0,0,0,23.68-15.29q5-3.63,10.94-8.66t6.91-5a1.86,1.86,0,0,1,1.41.67,2.18,2.18,0,0,1,.6,1.48q0,2.55-12.74,12.74l-3,2.42a142.75,142.75,0,0,1-26.64,17.51q-12.95,6.38-21.13,6.37a14,14,0,0,1-9.59-3.22,10.54,10.54,0,0,1-3.69-8.32q0-6.84,6.84-16.5T2013.73,1869Zm54.21-56.62a7.84,7.84,0,0,1,2.61-6.11,10,10,0,0,1,6.91-2.34,10.19,10.19,0,0,1,7.05,2.34,7.84,7.84,0,0,1,2.61,6.11,8.24,8.24,0,0,1-2.68,6.44,10,10,0,0,1-7,2.41,9.72,9.72,0,0,1-7-2.41A8.46,8.46,0,0,1,2067.94,1812.42Z" transform="translate(-263.15 -1317.26)"/><path d="M2276.21,1913.85a84.25,84.25,0,0,1-23.42-6.44,87.71,87.71,0,0,1-21-13.28q-18.66,13.41-31.54,19.19t-23.74,5.76q-13.16,0-21.13-7.17t-8-18.85q0-9.27,5.3-15.37a16.65,16.65,0,0,1,13.08-6.1,11.49,11.49,0,0,1,12.08,12.07,9.53,9.53,0,0,1-2.82,7.25,10.63,10.63,0,0,1-7.65,2.68,24,24,0,0,1-5.7-.87,24.56,24.56,0,0,0-4.36-.87,2.92,2.92,0,0,0-2.35.87,4.23,4.23,0,0,0-.73,2.75,14.2,14.2,0,0,0,6.17,11.87q6.16,4.64,16.36,4.63t22.55-5.83q12.48-5.84,27.5-17.51a105.55,105.55,0,0,1-17.77-29.05,83.48,83.48,0,0,1-5.84-30.93q0-24.54,12.41-40.25t31.46-15.7q18.78,0,32.6,14.69t18.79,40.19l45.35-41.46q42.14-38.5,65.34-52.93t41.06-14.42a7.57,7.57,0,0,1,3.89.94c1.07.62,1.61,1.34,1.61,2.14q0,.68-15.16,17a377,377,0,0,0-28.58,34.68q-3.9,5.23-11.94,16.23-55.55,76.21-99,118.07a87.69,87.69,0,0,0,25.22-4.76,85.88,85.88,0,0,0,22.54-12.28q5.24-3.75,11.28-9t7.11-5.23a2.15,2.15,0,0,1,1.67.67,2.49,2.49,0,0,1,.61,1.75c0,1.07-1.08,2.64-3.22,4.69s-6.4,5.64-12.75,10.74a90.21,90.21,0,0,1-27.17,15q-14.3,4.83-32.67,5l-3.09,3.35a7.42,7.42,0,0,1-3,2,12.71,12.71,0,0,1-4.35.67H2277a5.7,5.7,0,0,1-2.14-.34,1.09,1.09,0,0,1-.81-1,2.74,2.74,0,0,1,.2-.8c.14-.36.34-.8.61-1.34Zm-44.41-29.11q13-9.66,24.89-19.59t22.6-20l13.42-12.61q-3-21.35-13.95-33.35a35.5,35.5,0,0,0-27.24-12,37.63,37.63,0,0,0-29.25,13q-11.67,13-11.67,32.87a68.25,68.25,0,0,0,5.3,26.1A97.16,97.16,0,0,0,2231.8,1884.74Zm48.84,23.61a165,165,0,0,0,9.86-29.58,129.94,129.94,0,0,0,3.28-28.65c0-2.41,0-4.23-.06-5.43s-.12-2.31-.21-3.29l-8.45,7.92q-11,10.18-23.08,20.46t-25.08,20.46a64.58,64.58,0,0,0,19.12,12.14A87.91,87.91,0,0,0,2280.64,1908.35Zm19.05-72.32q.27,5.64.33,8.26c.05,1.74.07,3.33.07,4.76a151,151,0,0,1-1.81,23.48,138.16,138.16,0,0,1-5.57,22.67q29.11-32.87,60.85-73.12t37-46.16q11.28-12.47,23.48-24.42t25.49-23.34q-13.41.79-37.43,17.17t-55.41,46.29Z" transform="translate(-263.15 -1317.26)"/><path d="M2401.48,1869a133.25,133.25,0,0,0-15.1,10.13q-7.58,5.83-8.79,5.83a1.81,1.81,0,0,1-1.87-1.87q0-2.14,5-5.91l.13-.13,8.32-6.31a260.13,260.13,0,0,1,24.83-17.37q9.66-5.7,14.22-5.7a47.26,47.26,0,0,1,9.73.8c2.45.54,3.68,1.25,3.68,2.15q0,.94-10.93,10.13t-20.33,18.44a208.57,208.57,0,0,0-17.91,19.33q-6,7.65-6,10.87a3.39,3.39,0,0,0,1.07,2.68,4.33,4.33,0,0,0,3,.94q5.63,0,16.7-5.64a155.41,155.41,0,0,0,23.68-15.29q5-3.63,10.94-8.66c4-3.35,6.28-5,6.91-5a1.86,1.86,0,0,1,1.4.67,2.14,2.14,0,0,1,.61,1.48q0,2.55-12.75,12.74l-2.95,2.42a142.38,142.38,0,0,1-26.63,17.51q-12.94,6.38-21.13,6.37a14.06,14.06,0,0,1-9.6-3.22,10.54,10.54,0,0,1-3.69-8.32q0-6.84,6.84-16.5T2401.48,1869Zm54.2-56.62a7.81,7.81,0,0,1,2.62-6.11,10,10,0,0,1,6.91-2.34,10.16,10.16,0,0,1,7,2.34,7.81,7.81,0,0,1,2.62,6.11,8.24,8.24,0,0,1-2.68,6.44,10.06,10.06,0,0,1-7,2.41,9.74,9.74,0,0,1-7-2.41A8.46,8.46,0,0,1,2455.68,1812.42Z" transform="translate(-263.15 -1317.26)"/><path d="M2533.72,1853.48a3,3,0,0,1,1.41-.81,6.24,6.24,0,0,1,2.08-.4,21,21,0,0,1,6.44.87c1.79.58,2.68,1.23,2.68,1.94,0,.36-.82,1.41-2.48,3.16a53.24,53.24,0,0,0-4.09,4.76,58.33,58.33,0,0,0-7.58,12.55,28.07,28.07,0,0,0-2.62,10.8,8.25,8.25,0,0,0,1.88,5.63,6.28,6.28,0,0,0,5,2.15,15.9,15.9,0,0,0,7.24-2,53.81,53.81,0,0,0,9.53-6.85q2.42-2,6-5.23,4.29-4,5.49-4a2.13,2.13,0,0,1,1.68.67,2.51,2.51,0,0,1,.61,1.74,6.25,6.25,0,0,1-1.55,3.09,53.18,53.18,0,0,1-6.23,5.77q-9.67,7.9-15.44,10.8a24.41,24.41,0,0,1-10.86,2.88c-4.66,0-8.25-1.41-10.8-4.23s-3.83-6.72-3.83-11.74a30.49,30.49,0,0,1,.74-6.17,69.87,69.87,0,0,1,2.08-7.51q-12.21,11.15-23,23a311.27,311.27,0,0,0-19.93,24.22c-2.32.36-4.47.62-6.43.8s-3.76.27-5.37.27a12.12,12.12,0,0,1-4-.54c-1-.35-1.47-.8-1.47-1.34q0-1.74,7.78-10.19,4.7-5.23,7.65-8.46,15-17.56,20.26-25.35t5.23-11.81a3.08,3.08,0,0,0-.34-1.68,1.16,1.16,0,0,0-1-.47q-3.49,0-9.06,3.09a122.71,122.71,0,0,0-14.56,10.06q-2.68,2.14-6.57,5.77-4.83,4.42-6.31,4.43a2.53,2.53,0,0,1-2.55-2.55c0-.9.92-2.3,2.75-4.23s5.12-4.9,9.87-8.92a121.09,121.09,0,0,1,19.92-14q9.58-5.24,14.42-5.24a7.64,7.64,0,0,1,5.91,2.35,9.09,9.09,0,0,1,2.14,6.37,25.68,25.68,0,0,1-1.07,6.78,55.8,55.8,0,0,1-3.36,8.65Z" transform="translate(-263.15 -1317.26)"/><path d="M2603.17,1863.27q-8.72,6.43-18.38,14.62t-11,8.19a1.37,1.37,0,0,1-1.21-.6,3.32,3.32,0,0,1-.4-1.82q0-2.15,10.06-10.6t33.28-25.62L2696,1757a10.52,10.52,0,0,1,3.16-2.69,8,8,0,0,1,3.42-.67,17.17,17.17,0,0,1,6.37,1c1.65.67,2.48,1.54,2.48,2.61a4.07,4.07,0,0,1-.47,2,12.59,12.59,0,0,1-2.08,2.48l-93.11,108.82a145.1,145.1,0,0,0-15.43,21.13q-5.37,9.31-5.37,14.82,0,3.36,1.21,4.83a4.72,4.72,0,0,0,3.89,1.48q6.16,0,14.83-4a143.62,143.62,0,0,0,21-12.75q7.92-5.64,16.1-12.55t9.13-6.91a2.15,2.15,0,0,1,1.67.67,2.49,2.49,0,0,1,.61,1.75q0,2.41-15.16,14.62l-.67.54a163.55,163.55,0,0,1-28.38,18.72q-13.49,6.76-22.07,6.77-6.18,0-9.66-3.35T2584,1907q0-7.79,4.69-18.45T2603.17,1863.27Z" transform="translate(-263.15 -1317.26)"/><path d="M2695.44,1869a132.37,132.37,0,0,0-15.1,10.13q-7.58,5.83-8.79,5.83a1.83,1.83,0,0,1-1.88-1.87q0-2.14,5-5.91l.13-.13,8.32-6.31a260.21,260.21,0,0,1,24.82-17.37q9.66-5.7,14.23-5.7a47.08,47.08,0,0,1,9.72.8c2.46.54,3.69,1.25,3.69,2.15q0,.94-10.93,10.13t-20.33,18.44a208.57,208.57,0,0,0-17.91,19.33q-6,7.65-6,10.87a3.36,3.36,0,0,0,1.07,2.68,4.32,4.32,0,0,0,2.95.94q5.64,0,16.71-5.64a155.41,155.41,0,0,0,23.68-15.29q5-3.63,10.93-8.66c4-3.35,6.29-5,6.91-5a1.86,1.86,0,0,1,1.41.67,2.19,2.19,0,0,1,.61,1.48q0,2.55-12.75,12.74l-2.95,2.42a142.7,142.7,0,0,1-26.63,17.51q-13,6.38-21.14,6.37a14,14,0,0,1-9.59-3.22,10.54,10.54,0,0,1-3.69-8.32q0-6.84,6.84-16.5T2695.44,1869Zm54.2-56.62a7.81,7.81,0,0,1,2.62-6.11,10,10,0,0,1,6.91-2.34,10.16,10.16,0,0,1,7,2.34,7.85,7.85,0,0,1,2.62,6.11,8.25,8.25,0,0,1-2.69,6.44,10,10,0,0,1-7,2.41,9.73,9.73,0,0,1-7-2.41A8.46,8.46,0,0,1,2749.64,1812.42Z" transform="translate(-263.15 -1317.26)"/><path d="M2759.79,1918.55a14.59,14.59,0,0,1-3.08.6c-1.26.14-3.36.2-6.31.2a29.24,29.24,0,0,1-6.1-.4c-1-.27-1.55-.76-1.55-1.47q0-2.42,11.81-13.29,7.91-7.38,12.88-12.34l3.22-2.95q27.11-26.3,27.1-30.19a3,3,0,0,0-.4-1.68,1.24,1.24,0,0,0-1.07-.6c-2.51,0-5.7,1.2-9.6,3.62s-9.37,6.71-16.43,12.88q-2.69,2.28-6.44,5.77-5,4.69-6.58,4.7a2.51,2.51,0,0,1-1.74-.61,2.13,2.13,0,0,1-.67-1.68q0-1.87,9.52-10.33c1.35-1.16,2.37-2.1,3.09-2.81a129.94,129.94,0,0,1,19.72-14.83q8.46-4.89,14.36-4.9a8,8,0,0,1,6.57,2.82c1.52,1.88,2.28,4.69,2.28,8.45,0,.63,0,1.39-.13,2.28s-.23,2.2-.4,3.9q13.27-9.27,21.46-13.22t14-4a9,9,0,0,1,6.78,2.55,9.59,9.59,0,0,1,2.48,7,18,18,0,0,1-3.29,9.86q-3.29,5-14,15.23-2.82,2.68-8.05,7.51-16.36,15.3-16.37,18.52a2.9,2.9,0,0,0,1.21,2.41,5.08,5.08,0,0,0,3.22.94q5.9,0,17.24-5.7a157.76,157.76,0,0,0,24.22-15.5q5.49-4,11.67-9.39t7.38-5.37a2,2,0,0,1,1.54.67,2.54,2.54,0,0,1,.61,1.75q0,2.41-14.9,14.49l-.67.54a174.81,174.81,0,0,1-28.38,18.65q-13.62,7-20.86,7a14.12,14.12,0,0,1-9.79-3.35,11.14,11.14,0,0,1-3.76-8.72q0-6.45,4.9-14.09a72.58,72.58,0,0,1,14.15-15.57q3-2.54,8-6.84,12.48-10.47,12.48-12.34a2,2,0,0,0-.94-1.61,3.82,3.82,0,0,0-2.28-.67q-7.65,0-29.85,17.37T2759.79,1918.55Z" transform="translate(-263.15 -1317.26)"/><path d="M2899.68,1894.67a27,27,0,0,0-1.81,5,18,18,0,0,0-.6,4.29,8.43,8.43,0,0,0,2.75,6.71,11.09,11.09,0,0,0,7.58,2.42q8.45,0,20.66-6.24a150.72,150.72,0,0,0,26.17-17.64q3.62-3.09,8.85-7.85t6.44-4.77a2.19,2.19,0,0,1,1.68.67,2.53,2.53,0,0,1,.6,1.75q0,1.47-3.62,5.16t-12.61,11.34a124,124,0,0,1-26.84,17.78q-13.41,6.38-23.48,6.37-9.66,0-15.43-5.9t-5.77-16.1q0-9.13,5.77-18.18t16.77-17.24a90.89,90.89,0,0,1,18.11-10.47,41.52,41.52,0,0,1,15.7-3.49c4.3,0,7.34.7,9.13,2.08s2.68,3.78,2.68,7.18q0,10.34-15.16,21.47T2899.68,1894.67Zm3.89-8.05q18.12-3.76,30.46-12.08t12.34-15.56a5.57,5.57,0,0,0-.93-3.63,4.16,4.16,0,0,0-3.23-1.07q-6.71,0-16.5,8.25T2903.57,1886.62Z" transform="translate(-263.15 -1317.26)"/></svg>