<svg id="Capa_1" enableBackground="new 0 0 512 512" fill="#fff" height="60" viewBox="0 0 512 512" width="50" xmlns="http://www.w3.org/2000/svg"><g><path d="m120.891 223.468c-4.12-.442-7.818 2.531-8.265 6.648l-9.594 88.534c-.838 7.737-4.307 15.052-9.797 20.629l-62.304 64.039c-2.889 2.969-2.823 7.717.146 10.605 1.458 1.418 3.344 2.125 5.229 2.125 1.954 0 3.906-.759 5.376-2.27l62.273-64.007c7.82-7.944 12.789-18.422 13.99-29.504l9.594-88.534c.446-4.119-2.531-7.819-6.648-8.265z"/><path d="m310.293 189.633v-21.756c0-4.142-3.357-7.5-7.5-7.5s-7.5 3.358-7.5 7.5v20.45l-24.253-37.147c-2.265-3.469-6.912-4.445-10.381-2.18-3.468 2.264-4.444 6.912-2.18 10.38l24.977 38.255c-3.56 4.325-5.701 9.861-5.701 15.887 0 13.806 11.232 25.038 25.038 25.038s25.038-11.232 25.038-25.038c0-11.194-7.385-20.695-17.538-23.889zm-7.5 33.927c-5.535 0-10.038-4.503-10.038-10.038s4.503-10.038 10.038-10.038 10.038 4.503 10.038 10.038-4.503 10.038-10.038 10.038z"/><path d="m483.193 224.496c0-14.697-8.61-27.419-21.05-33.391 6.407-6.658 10.359-15.695 10.359-25.643 0-20.412-16.606-37.018-37.018-37.018h-6.801c-10.398-15.379-23.378-28.595-38.642-39.32-3.387-2.382-8.066-1.563-10.448 1.825-2.381 3.389-1.564 8.067 1.825 10.449 10.896 7.656 20.499 16.723 28.68 27.047h-3.835c-9.323 0-17.845 3.472-24.36 9.181-20.63-21.536-49.003-33.734-79.113-33.734-60.45 0-109.63 49.18-109.63 109.63 0 60.456 49.18 109.64 109.63 109.64 25.553 0 50.364-9.055 69.895-25.193 1.713 4.029 4.126 7.688 7.076 10.839-11.249 5.248-19.25 16.318-20.107 29.315-17.853 8.185-36.957 12.339-56.864 12.339-75.503 0-136.93-61.431-136.93-136.94 0-75.503 61.427-136.93 136.93-136.93 16.852 0 33.302 3.02 48.894 8.977 3.869 1.479 8.205-.461 9.683-4.33 1.479-3.869-.46-8.204-4.329-9.683-14.984-5.724-30.677-9-46.747-9.778v-11.684h24.701c10.554 0 19.14-8.586 19.14-19.14v-11.814c0-10.554-8.586-19.14-19.14-19.14h-64.396c-10.554 0-19.14 8.586-19.14 19.14v11.814c0 10.554 8.586 19.14 19.14 19.14h24.694v11.682c-34.009 1.661-65.112 14.56-89.676 35.05-5.811-17.047-21.165-29.702-40.026-31.424l-9.22-.85c-14.091-1.303-26.779 9.091-28.315 23.16l-11.65 107.5c-.446 4.118 2.53 7.818 6.648 8.265.275.03.547.044.817.044 3.779 0 7.031-2.849 7.447-6.692l11.649-107.495c.652-5.979 6.04-10.397 12.026-9.845l9.226.851c15.282 1.396 27.178 13.342 28.732 28.32-26.062 27.288-42.089 64.238-42.089 104.861 0 83.78 68.156 151.94 151.93 151.94 20.677 0 40.581-4.042 59.302-12.016 3.817 9.465 11.666 16.88 21.41 20.113-8.502 3.926-15.019 6.446-18.854 7.239-22.192 4.599-85.662-.944-104.588-2.752-8.35-.792-16.528 2.154-22.501 8.141l-110.66 113.07c-2.897 2.96-2.846 7.709.114 10.606 1.459 1.429 3.353 2.14 5.246 2.14 1.946 0 3.892-.753 5.36-2.254l110.609-113.019c2.747-2.752 6.543-4.114 10.408-3.752 30.967 2.959 86.313 7.22 109.053 2.509 10.45-2.162 30.332-11.959 45.794-20.156h8.091c19.238 0 34.891-15.652 34.891-34.89 0-8.376-2.969-16.07-7.906-22.091 14.244-5.157 24.45-18.816 24.45-34.818 0-10.033-4.018-19.141-10.523-25.815 12.255-6.041 20.708-18.66 20.708-33.22zm-216.737-193.542v-11.814c0-2.283 1.857-4.14 4.14-4.14h64.396c2.282 0 4.14 1.857 4.14 4.14v11.814c0 2.283-1.857 4.14-4.14 4.14h-32.114c-.029 0-.058-.004-.087-.004s-.058.004-.087.004h-32.107c-2.284 0-4.141-1.857-4.141-4.14zm179.72 215.559h-29.221c-12.141 0-22.018-9.877-22.018-22.018 0-12.14 9.877-22.017 22.018-22.017h29.032c.018 0 .035.002.053.002.012 0 .025-.002.038-.002h.098c12.141 0 22.018 9.877 22.018 22.017-.001 12.141-9.878 22.018-22.018 22.018zm-39.912-103.07h29.221c12.141 0 22.018 9.877 22.018 22.018s-9.877 22.018-22.018 22.018h-29.221c-12.141 0-22.018-9.877-22.018-22.018s9.877-22.018 22.018-22.018zm-198.104 70.077c0-52.179 42.451-94.63 94.63-94.63 26.807 0 52.021 11.199 69.95 30.894-2.237 4.764-3.494 10.075-3.494 15.677 0 14.697 8.61 27.419 21.05 33.392-6.407 6.658-10.359 15.695-10.359 25.643 0 9.865 3.886 18.833 10.199 25.476-.091.218-.189.432-.281.65-10.997 5.676-18.799 16.695-19.947 29.606-17.872 18.034-41.599 27.933-67.118 27.933-52.179-.001-94.63-42.456-94.63-94.641zm213.414 146.809h-27.115c-10.311 0-18.811-7.888-19.792-17.945-.001-.011-.001-.021-.002-.032-.061-.63-.097-1.267-.097-1.913 0-10.968 8.923-19.891 19.891-19.891h27.115c10.968 0 19.891 8.923 19.891 19.891 0 10.967-8.923 19.89-19.891 19.89zm14.417-54.781h-29.221c-12.141 0-22.018-9.877-22.018-22.018 0-12.14 9.877-22.017 22.018-22.017h29.221c12.141 0 22.018 9.877 22.018 22.017 0 12.141-9.877 22.018-22.018 22.018z"/></g></svg>